<svg width="25" height="25" viewBox="0 0 25 25" fill="none" xmlns="http://www.w3.org/2000/svg">
<g clip-path="url(#clip0_403_233)">
<path d="M3.75 21.5L5.4 17.7C4.13766 15.908 3.57267 13.717 3.81104 11.5381C4.04942 9.35915 5.07479 7.34211 6.69471 5.86549C8.31463 4.38887 10.4177 3.55418 12.6094 3.51807C14.801 3.48195 16.9305 4.2469 18.5982 5.66934C20.2659 7.09179 21.3571 9.07395 21.6672 11.2438C21.9772 13.4137 21.4847 15.6222 20.2821 17.4547C19.0795 19.2873 17.2494 20.618 15.1354 21.1971C13.0213 21.7762 10.7686 21.5639 8.8 20.6L3.75 21.5Z" stroke="black" stroke-width="2" stroke-linecap="round" stroke-linejoin="round"/>
<path d="M9.75 10.5C9.75 10.6326 9.80268 10.7598 9.89645 10.8536C9.99021 10.9473 10.1174 11 10.25 11C10.3826 11 10.5098 10.9473 10.6036 10.8536C10.6973 10.7598 10.75 10.6326 10.75 10.5V9.5C10.75 9.36739 10.6973 9.24021 10.6036 9.14645C10.5098 9.05268 10.3826 9 10.25 9C10.1174 9 9.99021 9.05268 9.89645 9.14645C9.80268 9.24021 9.75 9.36739 9.75 9.5V10.5ZM9.75 10.5C9.75 11.8261 10.2768 13.0979 11.2145 14.0355C12.1521 14.9732 13.4239 15.5 14.75 15.5M14.75 15.5H15.75C15.8826 15.5 16.0098 15.4473 16.1036 15.3536C16.1973 15.2598 16.25 15.1326 16.25 15C16.25 14.8674 16.1973 14.7402 16.1036 14.6464C16.0098 14.5527 15.8826 14.5 15.75 14.5H14.75C14.6174 14.5 14.4902 14.5527 14.3964 14.6464C14.3027 14.7402 14.25 14.8674 14.25 15C14.25 15.1326 14.3027 15.2598 14.3964 15.3536C14.4902 15.4473 14.6174 15.5 14.75 15.5Z" stroke="black" stroke-width="2" stroke-linecap="round" stroke-linejoin="round"/>
</g>
<defs>
<clipPath id="clip0_403_233">
<rect width="24" height="24" fill="white" transform="translate(0.75 0.5)"/>
</clipPath>
</defs>
</svg>
