<svg width="197" height="50" viewBox="0 0 197 50" fill="none" xmlns="http://www.w3.org/2000/svg">
<path d="M30.2521 38.4576C31.1941 38.3033 32.1473 38.2287 33.1017 38.2347C34.5636 38.2347 35.635 38.5776 36.3161 39.1892C36.6475 39.4932 36.9089 39.8659 37.0821 40.2814C37.2554 40.697 37.3362 41.1454 37.3191 41.5955C37.341 42.0431 37.274 42.4907 37.1218 42.9121C36.9697 43.3336 36.7355 43.7204 36.4329 44.0503C35.6521 44.8848 34.3755 45.3106 32.9307 45.3106C32.5321 45.3229 32.1334 45.2894 31.7425 45.2105V49.8116H30.2635L30.2521 38.4576ZM31.7311 43.9988C32.1319 44.09 32.5426 44.1303 32.9535 44.1189C34.7402 44.1189 35.8288 43.2473 35.8288 41.6612C35.8288 40.1466 34.7573 39.4121 33.1245 39.4121C32.657 39.3989 32.1895 39.4391 31.7311 39.5321V43.9988Z" fill="white"/>
<path d="M45.23 44.4245H40.7761V48.5683H45.7401V49.8114H39.2971V38.3203H45.4836V39.5663H40.7761V43.1985H45.23V44.4245Z" fill="white"/>
<path d="M50.1084 39.5834H46.6233V38.3203H55.118V39.5834H51.6044V49.8114H50.1084V39.5834Z" fill="white"/>
<path d="M59.7798 48.0054C60.5819 48.4873 61.4978 48.7458 62.4328 48.7541C63.9459 48.7541 64.8293 47.9539 64.8293 46.7937C64.8293 45.722 64.2167 45.1076 62.6722 44.5074C60.8 43.8416 59.6459 42.8699 59.6459 41.2496C59.6459 39.4606 61.1248 38.1317 63.3504 38.1317C64.2293 38.1054 65.1007 38.302 65.8837 38.7033L65.4762 39.9121C64.8072 39.5511 64.0588 39.3635 63.2991 39.3663C61.7346 39.3663 61.1419 40.3036 61.1419 41.081C61.1419 42.1555 61.8372 42.6842 63.4216 43.2957C65.3593 44.0473 66.3453 44.9847 66.3453 46.6736C66.3453 48.4454 65.0373 49.9801 62.3331 49.9801C61.2274 49.9801 60.022 49.6571 59.4094 49.2456L59.7798 48.0054Z" fill="white"/>
<path d="M74.2985 44.4245H69.8445V48.5683H74.8086V49.8114H68.3656V38.3203H74.5549V39.5663H69.8445V43.1985H74.2985V44.4245Z" fill="white"/>
<path d="M84.7367 49.437C83.7779 49.8321 82.7463 50.0182 81.7104 49.9829C78.4818 49.9829 76.0511 47.9367 76.0511 44.1701C76.0511 40.5722 78.4818 38.1345 82.0353 38.1345C83.4601 38.1345 84.3634 38.4403 84.7538 38.6461L84.3976 39.8549C83.6716 39.5274 82.8825 39.3644 82.0866 39.3776C79.3994 39.3776 77.6155 41.0923 77.6155 44.1187C77.6155 46.9307 79.2284 48.7369 82.0182 48.7369C82.8472 48.7498 83.6697 48.5871 84.4318 48.2596L84.7367 49.437Z" fill="white"/>
<path d="M88.068 38.3203V45.1247C88.068 47.6967 89.2078 48.7884 90.7381 48.7884C92.4478 48.7884 93.5278 47.6652 93.5278 45.1247V38.3203H95.0125V45.0218C95.0125 48.5512 93.1574 50 90.6754 50C88.3302 50 86.5605 48.654 86.5605 45.0904V38.3203H88.068Z" fill="white"/>
<path d="M97.5773 38.4832C98.5176 38.3144 99.4716 38.2341 100.427 38.2431C102.008 38.2431 103.029 38.5289 103.741 39.1833C104.037 39.4615 104.271 39.8 104.426 40.176C104.581 40.5521 104.655 40.957 104.641 41.3638C104.65 42.0215 104.443 42.6639 104.054 43.1932C103.665 43.7225 103.113 44.1097 102.484 44.2959V44.3473C103.368 44.656 103.895 45.4733 104.166 46.6679C104.542 48.2682 104.812 49.377 105.052 49.8114H103.522C103.333 49.4885 103.077 48.4997 102.755 47.0679C102.416 45.4819 101.803 44.8846 100.475 44.8332H99.079V49.8114H97.5773V38.4832ZM99.0562 43.7158H100.569C102.151 43.7158 103.154 42.8584 103.154 41.5353C103.154 40.0521 102.083 39.4034 100.521 39.3862C100.029 39.3723 99.5371 39.4184 99.0562 39.5234V43.7158Z" fill="white"/>
<path d="M108.215 38.3203V49.8114H106.736V38.3203H108.215Z" fill="white"/>
<path d="M112.965 39.5834H109.491V38.3203H117.975V39.5834H114.472V49.8114H112.965V39.5834Z" fill="white"/>
<path d="M122.275 49.8114V44.9361L118.664 38.3203H120.348L121.964 41.4925C122.406 42.3498 122.745 43.0614 123.104 43.8615H123.138C123.463 43.1128 123.853 42.3612 124.295 41.4925L125.945 38.3203H127.626L123.785 44.9189V49.8114H122.275Z" fill="white"/>
<path d="M134.004 39.5834H130.519V38.3203H139.005V39.5834H135.5V49.8114H134.004V39.5834Z" fill="white"/>
<path d="M140.856 46.1992L139.665 49.8114H138.135L142.03 38.3203H143.817L147.73 49.8114H146.148L144.92 46.1992H140.856ZM144.612 45.0389L143.489 41.7296C143.236 40.9809 143.065 40.3008 142.897 39.6349H142.862C142.691 40.3151 142.503 41.0152 142.292 41.7125L141.175 45.0389H144.612Z" fill="white"/>
<path d="M157.875 49.2998C156.746 49.7079 155.556 49.9214 154.356 49.9314C152.62 49.9314 151.193 49.4885 150.081 48.4139C149.095 47.4594 148.483 45.9248 148.483 44.1273C148.5 40.6979 150.848 38.1917 154.689 38.1917C155.665 38.1702 156.635 38.3502 157.539 38.7204L157.182 39.932C156.385 39.5823 155.52 39.4135 154.649 39.4377C151.862 39.4377 150.041 41.178 150.041 44.0587C150.041 46.9393 151.794 48.6968 154.461 48.6968C155.433 48.6968 156.094 48.5597 156.436 48.3882V44.9589H154.105V43.7643H157.875V49.2998Z" fill="white"/>
<path d="M36.9082 32.719H31.3828V3.37817H36.9082V32.719Z" fill="#FDD30F"/>
<path d="M49.0306 21.4479V16.3268H57.437V18.8988C57.2973 28.1209 54.3252 32.7304 48.5661 32.7304C42.6675 32.7304 39.6953 27.8408 39.6953 18.0615C39.6953 8.28216 42.6675 3.38965 48.5661 3.38965C53.3962 3.38965 56.2287 6.46176 57.115 12.6117H51.5383C50.9684 9.491 50.0992 8.51364 48.5661 8.51364C47.4035 8.51364 46.5714 9.21093 46.0015 10.5627C45.4914 11.9115 45.2121 14.3807 45.2121 18.0615C45.2121 21.7423 45.4971 24.2543 46.0015 25.606C46.5714 26.9577 47.3949 27.6065 48.5661 27.6065C50.4241 27.6065 51.4442 26.1604 51.8175 21.4565L49.0306 21.4479Z" fill="#FDD30F"/>
<path d="M65.75 32.719H60.2246V3.37817H65.75V32.719Z" fill="#FDD30F"/>
<path d="M68.5364 8.50217V3.37817H84.0012V8.50217H79.0315V32.719H73.5061V8.50217H68.5364Z" fill="#FDD30F"/>
<path d="M89.0653 32.719H83.5371L88.1364 3.37817H96.6339L101.233 32.719H95.7049L95.0125 28.3894H89.7151L89.0653 32.719ZM92.3623 11.5286L90.55 23.2654H94.2203L92.3623 11.5286Z" fill="#FDD30F"/>
<path d="M103.091 32.719V3.37817H108.616V27.5978H117.627V32.719H103.091Z" fill="#FDD30F"/>
<path d="M120.693 8.8652V3.74121H136.158V8.8652H131.203V33.0849H125.663V8.8652H120.693Z" fill="#FDD30F"/>
<path d="M141.222 33.0849H135.693L140.293 3.74121H148.79L153.389 33.0849H147.861L147.16 28.7668H141.871L141.222 33.0849ZM144.519 11.9059L142.706 23.6228H146.377L144.519 11.9059Z" fill="#FDD30F"/>
<path d="M161.237 33.0849H155.709V3.74121H161.237V33.0849Z" fill="#FDD30F"/>
<path d="M164.488 33.0849V3.74121H170.014V27.9609H179.024V33.0849H164.488Z" fill="#FDD30F"/>
<path d="M189.05 33.0849C184.171 33.0849 181.153 30.5129 181.153 25.4918V23.4427H186.679V24.8859C186.679 26.934 187.469 27.959 189.05 27.9609C190.674 27.9609 191.463 27.1235 191.463 25.4918C191.463 23.8142 189.839 22.0453 187.796 20.5078C184.946 18.273 181.199 15.4324 181.199 11.2857C181.199 6.39608 184.265 3.74121 189.05 3.74121C194.344 3.74121 196.991 6.44181 196.991 11.8001V13.3834H191.472V11.9373C191.472 9.88829 190.682 8.8652 189.058 8.8652C187.479 8.8652 186.689 9.65682 186.687 11.24C186.687 12.869 188.314 14.455 190.312 15.9439C193.236 17.9929 197.046 20.9279 197 25.5375C197 30.5214 193.894 33.0849 189.05 33.0849Z" fill="#FDD30F"/>
<path d="M9.70642 33.0534C8.03085 33.0534 6.35528 33.1105 4.68256 33.0534C3.4607 33.0027 2.30223 32.4943 1.43612 31.6285C0.570007 30.7627 0.059268 29.6025 0.00484328 28.3773C-0.0495815 27.1521 0.356266 25.951 1.14218 25.0114C1.9281 24.0718 3.03689 23.462 4.24942 23.3026C5.72552 23.0912 6.85111 23.477 7.25861 25.2259C7.48563 26.1573 8.05575 26.9679 8.85438 27.495C10.5898 28.7095 12.4563 29.0725 14.4282 28.1208C14.9589 27.8859 15.4192 27.516 15.7635 27.0479C16.1079 26.5797 16.3244 26.0295 16.3916 25.4517C16.4742 24.8515 16.8105 24.5944 17.4801 24.5458C18.9246 24.4974 20.3051 23.9364 21.3756 22.9626C22.1396 22.292 22.6229 21.3568 22.7286 20.3441C22.8343 19.3314 22.5546 18.316 21.9455 17.5013C21.4553 16.8069 21.3756 16.3325 21.8258 15.7867C23.5584 13.5948 22.8374 10.4655 19.8482 9.15092C19.103 8.86014 18.3233 8.668 17.5286 8.57936C16.7563 8.45933 16.5027 8.27644 16.3745 7.49341C16.3002 7.05144 16.1372 6.62923 15.8952 6.25243C15.6532 5.87562 15.3373 5.5521 14.9668 5.3015C12.5988 3.58683 8.69766 4.63277 7.46948 7.28479C7.37357 7.47211 7.30176 7.67089 7.25575 7.87635C6.97079 9.42241 5.81386 10.1026 4.14969 9.78249C1.47391 9.26523 -0.221609 7.04188 0.0320062 4.43558C0.282772 1.89502 2.42283 0.0260375 5.09576 0.020322C8.028 0.020322 10.9602 -0.0254025 13.8896 0.020322C17.9389 0.0946242 21.1732 1.90931 23.6866 5.00143C26.975 9.04232 28.1149 13.7491 27.5136 18.8674C26.9608 23.577 24.9832 27.5722 21.1675 30.51C18.8869 32.2923 16.0489 33.2038 13.1601 33.0819C12.0203 33.0505 10.8577 33.0819 9.70642 33.0819V33.0534Z" fill="#FDD30F"/>
<path d="M12.4106 16.9842C12.383 18.2837 11.9237 19.5369 11.1055 20.545C9.56672 22.4054 7.24714 22.3225 5.82234 20.3678C4.3149 18.3016 4.275 14.958 5.73115 12.8519C7.28134 10.6142 9.94002 10.6657 11.4161 12.9633C12.0886 14.0093 12.4163 15.1952 12.4106 16.9842Z" fill="white"/>
<path d="M17.0843 22.9739C15.8418 22.9739 14.7048 22.651 13.8015 21.7451C12.6987 20.642 12.7016 19.1731 13.8015 18.0642C15.3916 16.4182 18.7826 16.4153 20.3841 18.0642C21.6123 19.3245 21.4328 21.0678 19.9538 22.1252C19.1157 22.7154 18.1076 23.0136 17.0843 22.9739Z" fill="white"/>
<path d="M16.5991 16.2552C16.0282 16.2394 15.4669 16.1041 14.9511 15.858C14.4354 15.612 13.9766 15.2606 13.6041 14.8264C13.1793 14.3512 12.9559 13.7287 12.9815 13.091C13.007 12.4533 13.2795 11.8508 13.7409 11.4113C15.3396 9.75094 18.6052 9.67664 20.2779 11.2627C21.6087 12.523 21.452 14.3548 19.9132 15.4293C19.0725 16.0038 18.1293 16.2638 16.5991 16.2552Z" fill="white"/>
<path d="M12.4849 6.01025C12.9745 6.12031 13.4518 6.27923 13.9097 6.48465C14.1268 6.59902 14.3187 6.75592 14.4742 6.94604C14.6297 7.13617 14.7455 7.35565 14.8149 7.59149C14.8842 7.82734 14.9057 8.07474 14.878 8.31905C14.8502 8.56335 14.7739 8.7996 14.6535 9.01378C13.7986 10.7113 11.1627 11.4372 9.57549 10.4055C9.35026 10.2702 9.15542 10.0896 9.00325 9.8751C8.85107 9.66056 8.74486 9.41673 8.69132 9.15898C8.63777 8.90123 8.63805 8.63515 8.69214 8.37751C8.74623 8.11988 8.85295 7.87627 9.00557 7.66205C9.75217 6.53037 10.8635 6.0817 12.4849 6.01025Z" fill="white"/>
<path d="M11.2338 22.208C12.5333 22.2452 13.5791 22.6481 14.3513 23.6083C15.3145 24.8029 14.9212 26.3146 13.4708 26.8319C12.8078 27.0891 12.0857 27.152 11.3884 27.0134C10.6912 26.8748 10.0476 26.5403 9.53263 26.0489C8.86582 25.4773 8.47257 24.7343 8.72619 23.8141C8.9798 22.8939 9.68936 22.4909 10.5499 22.2937C10.7761 22.2519 11.0044 22.2233 11.2338 22.208Z" fill="white"/>
</svg>
